<svg width="29" height="20" viewBox="0 0 29 20" fill="none" xmlns="http://www.w3.org/2000/svg">
<path d="M5.34953 9.78C2.15855 9.78 0 7.79454 0 4.85273C0 2.20545 2.47622 0 5.83011 0C9.50371 0 12.2182 2.64727 12.2182 6.69091C12.2182 15.8818 4.71215 19.5582 0 20V15.9564C3.19505 15.4418 6.7872 12.5745 6.94807 9.41091C6.7872 9.48363 6.14982 9.78 5.34953 9.78ZM21.6404 9.78C18.4474 9.78 16.2909 7.79454 16.2909 4.85273C16.2909 2.20545 18.7671 0 22.121 0C25.7946 0 28.5091 2.64727 28.5091 6.69091C28.5091 15.8818 21.0031 19.5582 16.2909 20V15.9564C19.486 15.4418 23.0781 12.5745 23.239 9.41091C23.0781 9.48363 22.4407 9.78 21.6404 9.78Z" fill="#333333"/>
</svg>
