<svg width="25" height="18" viewBox="0 0 25 18" fill="none" xmlns="http://www.w3.org/2000/svg">
<path d="M4.58531 8.38286C1.85018 8.38286 0 6.68104 0 4.15948C0 1.89039 2.12247 0 4.99724 0C8.14604 0 10.4727 2.26909 10.4727 5.73507C10.4727 13.613 4.03898 16.7642 0 17.1429V13.6769C2.73862 13.2358 5.8176 10.7782 5.95549 8.06649C5.8176 8.12883 5.27127 8.38286 4.58531 8.38286ZM18.5489 8.38286C15.8121 8.38286 13.9636 6.68104 13.9636 4.15948C13.9636 1.89039 16.0861 0 18.9609 0C22.1097 0 24.4364 2.26909 24.4364 5.73507C24.4364 13.613 18.0026 16.7642 13.9636 17.1429V13.6769C16.7023 13.2358 19.7812 10.7782 19.9191 8.06649C19.7812 8.12883 19.2349 8.38286 18.5489 8.38286Z" fill="#333333"/>
</svg>
